# xmcd
#
# Track frame offsets: 
#        150
#        17112
#        34463
#        55598
#        72648
#        88474
#        102037
#        118359
#        134331
#        149435
#        170165
#        178635
#        195098
#        209485
#        225222
#        242608
#
# Disc length: 3423 seconds
#
# Revision: 2
# Processed by: cddbd v1.5.2PL0 Copyright (c) Steve Scherf et al.
# Submitted via: ExactAudioCopyFreeDBPlugin 1.0
#
DISCID=ea0d5d10
DTITLE=Various Artist - Kneipen Hits: Deutsche Party (2006)
DYEAR=2006
DGENRE=Schlager
TTITLE0=Wolfgang Petry - Auf den Mond schießen (hinterherfliegen)
TTITLE1=Bernhard Brink - Blondes Wunder
TTITLE2=Christian Anders - Es fährt ein Zug nach Nirgendwo
TTITLE3=Pe Werner - Kribbeln im Bauch
TTITLE4=Henry Valentino mit Uschi - Im Wagen vor mir
TTITLE5=Costa Cordalis - Anita
TTITLE6=Peter Markus - Wer küssen will
TTITLE7=Geier Sturzflug - Die pure Lust am Leben 2000
TTITLE8=Klaus Lage Band - 1000 und 1 Nacht (Zoom!)
TTITLE9=Markus Becker - Zehn kleine Jägermeister
TTITLE10=Stephan Sulke - Uschi
TTITLE11=George le Bonsai - Ich bin Tarzan
TTITLE12=Die Sexy Boys Ralf und Joe - Lieschen, Lieschen, Lieschen
TTITLE13=Die Palmenwedler - Im Krug zum rosa Kranze
TTITLE14=Mickie Krause - Krausemix (Alle Total Versaut - Arschgeweih)
TTITLE15=Lollies - Wenn Du denkst Du denkst, dann denkst Du nur Du den
TTITLE15=kst!
EXTD=
EXTT0=
EXTT1=
EXTT2=
EXTT3=
EXTT4=
EXTT5=
EXTT6=
EXTT7=
EXTT8=
EXTT9=
EXTT10=
EXTT11=
EXTT12=
EXTT13=
EXTT14=
EXTT15=
PLAYORDER=
